<svg width="165" height="129" viewBox="0 0 165 129" fill="none" xmlns="http://www.w3.org/2000/svg">
<path d="M0 126L5 128.887V123.113L0 126ZM83 0H82.5V106H83H83.5V0H83ZM63 126V125.5H4.5V126V126.5H63V126ZM83 106H82.5C82.5 116.77 73.7696 125.5 63 125.5V126V126.5C74.3218 126.5 83.5 117.322 83.5 106H83Z" fill="white"/>
<path d="M165 126L160 128.887V123.113L165 126ZM83 0H83.5V106H83H82.5V0H83ZM103 126V125.5H160.5V126V126.5H103V126ZM83 106H83.5C83.5 116.77 92.2304 125.5 103 125.5V126V126.5C91.6782 126.5 82.5 117.322 82.5 106H83Z" fill="white"/>
</svg>
