<svg width="220" height="51" viewBox="0 0 220 51" fill="none" xmlns="http://www.w3.org/2000/svg">
<path d="M0 23.8222L12.2833 50.0639H17.6806L29.9639 23.8222H23.115L20.0256 31.0433L22.6311 29.145H7.29556L9.93833 31.0433L6.84889 23.8222H0ZM14.9261 42.9172L10.6083 32.6067L9.56611 34.3933H20.3978L19.3556 32.6067L15.0006 42.9172H14.9261Z" fill="#E15B00"/>
<path d="M11.9111 26.2417L24.1944 0H29.5917L41.875 26.2417H35.0261L31.9367 19.0206L34.5422 20.9189H19.2067L21.8494 19.0206L18.76 26.2417H11.9111ZM26.8372 7.14667L22.5194 17.4572L21.4772 15.6706H32.3089L31.2667 17.4572L26.9117 7.14667H26.8372Z" fill="#E15B00"/>
<path d="M62.5886 27.032H58.4693L64.746 8.85021H69.6998L75.9676 27.032H71.8482L67.2939 13.005H67.1519L62.5886 27.032ZM62.3312 19.8854H72.0613V22.8861H62.3312V19.8854ZM77.2859 27.032L77.2682 24.0313H77.7209C78.0405 24.0313 78.3157 23.9544 78.5466 23.8005C78.7833 23.6407 78.9786 23.3832 79.1325 23.0281C79.2864 22.673 79.4077 22.2025 79.4965 21.6165C79.5853 21.0247 79.6445 20.2967 79.6741 19.4326L79.896 13.3957H90.2653V27.032H86.6609V16.3697H83.2962L83.0831 20.5334C83.0299 21.6757 82.8908 22.6582 82.6659 23.4809C82.4469 24.3036 82.1421 24.9783 81.7515 25.505C81.3608 26.0259 80.8903 26.4106 80.3399 26.6592C79.7895 26.9077 79.1503 27.032 78.4223 27.032H77.2859ZM99.4117 27.2984C98.009 27.2984 96.8016 27.0143 95.7896 26.4461C94.7834 25.872 94.0081 25.0611 93.4636 24.0136C92.919 22.9601 92.6468 21.7142 92.6468 20.276C92.6468 18.8733 92.919 17.6422 93.4636 16.5828C94.0081 15.5234 94.7745 14.6977 95.7629 14.1059C96.7572 13.514 97.9232 13.2181 99.2608 13.2181C100.16 13.2181 100.998 13.3631 101.773 13.6531C102.554 13.9372 103.235 14.3663 103.815 14.9404C104.401 15.5145 104.857 16.2366 105.182 17.1066C105.508 17.9707 105.671 18.9828 105.671 20.1428V21.1815H94.156V18.8378H102.111C102.111 18.2933 101.992 17.8109 101.755 17.3907C101.519 16.9705 101.19 16.642 100.77 16.4053C100.356 16.1626 99.8734 16.0413 99.3229 16.0413C98.7488 16.0413 98.2398 16.1744 97.7959 16.4408C97.358 16.7012 97.0147 17.0533 96.7661 17.4972C96.5175 17.9352 96.3903 18.4235 96.3844 18.9621V21.1904C96.3844 21.8651 96.5087 22.4481 96.7572 22.9393C97.0117 23.4306 97.3698 23.8094 97.8315 24.0757C98.2931 24.342 98.8406 24.4752 99.4739 24.4752C99.8941 24.4752 100.279 24.416 100.628 24.2977C100.977 24.1793 101.276 24.0017 101.525 23.765C101.773 23.5282 101.963 23.2382 102.093 22.895L105.591 23.1258C105.413 23.9662 105.049 24.7001 104.499 25.3275C103.954 25.9489 103.25 26.4343 102.386 26.7834C101.528 27.1267 100.536 27.2984 99.4117 27.2984ZM108.139 27.032V13.3957H111.921V18.6869H112.986L116.697 13.3957H121.136L116.315 20.1606L121.189 27.032H116.697L113.332 22.1936H111.921V27.032H108.139ZM128.387 27.2984C126.99 27.2984 125.789 27.0024 124.782 26.4106C123.782 25.8128 123.013 24.9842 122.474 23.9248C121.941 22.8654 121.675 21.6461 121.675 20.2671C121.675 18.8703 121.944 17.6452 122.483 16.5917C123.028 15.5323 123.8 14.7066 124.8 14.1148C125.8 13.517 126.99 13.2181 128.369 13.2181C129.559 13.2181 130.6 13.4341 131.494 13.8662C132.388 14.2982 133.095 14.9049 133.616 15.6861C134.137 16.4674 134.424 17.3848 134.477 18.4383H130.908C130.807 17.7576 130.541 17.2102 130.109 16.7959C129.683 16.3757 129.124 16.1656 128.431 16.1656C127.845 16.1656 127.333 16.3254 126.895 16.645C126.463 16.9586 126.126 17.4173 125.883 18.021C125.641 18.6247 125.519 19.3557 125.519 20.2138C125.519 21.0839 125.638 21.8237 125.874 22.4333C126.117 23.0429 126.457 23.5075 126.895 23.8271C127.333 24.1467 127.845 24.3065 128.431 24.3065C128.863 24.3065 129.251 24.2178 129.594 24.0402C129.943 23.8626 130.23 23.6052 130.455 23.2678C130.686 22.9245 130.837 22.5132 130.908 22.0338H134.477C134.418 23.0755 134.134 23.9928 133.625 24.7859C133.122 25.5731 132.426 26.1886 131.538 26.6325C130.651 27.0764 129.6 27.2984 128.387 27.2984ZM140.787 27.2895C139.917 27.2895 139.142 27.1386 138.461 26.8367C137.78 26.529 137.242 26.0762 136.845 25.4784C136.455 24.8747 136.259 24.1231 136.259 23.2234C136.259 22.4659 136.398 21.8296 136.676 21.3147C136.955 20.7998 137.333 20.3855 137.813 20.0718C138.292 19.7581 138.837 19.5214 139.446 19.3616C140.062 19.2018 140.707 19.0893 141.382 19.0242C142.175 18.9414 142.814 18.8644 143.299 18.7934C143.785 18.7165 144.137 18.604 144.356 18.456C144.575 18.3081 144.684 18.0891 144.684 17.7991V17.7458C144.684 17.1835 144.507 16.7485 144.152 16.4408C143.802 16.133 143.305 15.9791 142.66 15.9791C141.979 15.9791 141.438 16.13 141.035 16.4319C140.633 16.7278 140.367 17.1007 140.236 17.5505L136.739 17.2664C136.916 16.4378 137.265 15.7217 137.786 15.118C138.307 14.5084 138.979 14.0408 139.801 13.7153C140.63 13.3838 141.589 13.2181 142.678 13.2181C143.435 13.2181 144.16 13.3069 144.853 13.4844C145.551 13.662 146.17 13.9372 146.708 14.3101C147.253 14.683 147.682 15.1624 147.996 15.7483C148.309 16.3283 148.466 17.0237 148.466 17.8346V27.032H144.88V25.141H144.773C144.554 25.5672 144.261 25.943 143.894 26.2685C143.527 26.5881 143.086 26.8397 142.571 27.0232C142.056 27.2007 141.462 27.2895 140.787 27.2895ZM141.87 24.6794C142.426 24.6794 142.918 24.5699 143.344 24.3509C143.77 24.126 144.104 23.8242 144.347 23.4454C144.59 23.0666 144.711 22.6375 144.711 22.1581V20.711C144.593 20.7879 144.43 20.859 144.223 20.9241C144.021 20.9833 143.794 21.0395 143.539 21.0928C143.285 21.1401 143.03 21.1845 142.776 21.2259C142.521 21.2614 142.29 21.294 142.083 21.3236C141.639 21.3887 141.251 21.4923 140.92 21.6343C140.589 21.7763 140.331 21.9687 140.148 22.2114C139.964 22.4481 139.872 22.744 139.872 23.0991C139.872 23.6141 140.059 24.0076 140.432 24.2799C140.811 24.5462 141.29 24.6794 141.87 24.6794ZM160.891 18.7046V21.6787H153.771V18.7046H160.891ZM155.014 13.3957V27.032H151.4V13.3957H155.014ZM163.261 13.3957V27.032H159.674V13.3957H163.261ZM165.13 31.0271V24.0313H166.178C166.479 23.8419 166.722 23.5401 166.905 23.1258C167.095 22.7115 167.249 22.2232 167.367 21.6609C167.491 21.0987 167.586 20.492 167.651 19.841C167.722 19.184 167.784 18.5211 167.838 17.8523L168.193 13.3957H178.651V24.0313H180.764V31.0271H177.159V27.032H168.823V31.0271H165.13ZM169.942 24.0313H175.082V16.3076H171.407L171.265 17.8523C171.164 19.3083 171.019 20.5453 170.83 21.5633C170.64 22.5754 170.344 23.398 169.942 24.0313ZM182.968 32.1457V13.3957H186.696V15.6861H186.865C187.031 15.3192 187.271 14.9463 187.584 14.5675C187.904 14.1828 188.318 13.8632 188.827 13.6087C189.342 13.3483 189.981 13.2181 190.745 13.2181C191.739 13.2181 192.656 13.4785 193.497 13.9994C194.337 14.5143 195.009 15.2926 195.512 16.3342C196.015 17.37 196.267 18.6691 196.267 20.2316C196.267 21.7527 196.021 23.037 195.53 24.0846C195.045 25.1263 194.382 25.9164 193.541 26.455C192.707 26.9876 191.772 27.254 190.736 27.254C190.002 27.254 189.378 27.1326 188.863 26.89C188.354 26.6473 187.936 26.3425 187.611 25.9756C187.285 25.6027 187.037 25.2269 186.865 24.8481H186.75V32.1457H182.968ZM186.67 20.2138C186.67 21.0247 186.782 21.732 187.007 22.3357C187.232 22.9393 187.558 23.4099 187.984 23.7472C188.41 24.0787 188.928 24.2444 189.537 24.2444C190.153 24.2444 190.674 24.0757 191.1 23.7383C191.526 23.3951 191.849 22.9216 192.068 22.3179C192.292 21.7083 192.405 21.0069 192.405 20.2138C192.405 19.4267 192.295 18.7342 192.076 18.1364C191.857 17.5387 191.535 17.0711 191.109 16.7337C190.683 16.3964 190.159 16.2277 189.537 16.2277C188.922 16.2277 188.401 16.3905 187.975 16.716C187.555 17.0415 187.232 17.5031 187.007 18.1009C186.782 18.6987 186.67 19.403 186.67 20.2138ZM202.677 27.2895C201.807 27.2895 201.031 27.1386 200.351 26.8367C199.67 26.529 199.131 26.0762 198.735 25.4784C198.344 24.8747 198.149 24.1231 198.149 23.2234C198.149 22.4659 198.288 21.8296 198.566 21.3147C198.844 20.7998 199.223 20.3855 199.702 20.0718C200.182 19.7581 200.726 19.5214 201.336 19.3616C201.952 19.2018 202.597 19.0893 203.271 19.0242C204.064 18.9414 204.704 18.8644 205.189 18.7934C205.674 18.7165 206.026 18.604 206.245 18.456C206.464 18.3081 206.574 18.0891 206.574 17.7991V17.7458C206.574 17.1835 206.396 16.7485 206.041 16.4408C205.692 16.133 205.195 15.9791 204.55 15.9791C203.869 15.9791 203.328 16.13 202.925 16.4319C202.523 16.7278 202.256 17.1007 202.126 17.5505L198.628 17.2664C198.806 16.4378 199.155 15.7217 199.676 15.118C200.197 14.5084 200.868 14.0408 201.691 13.7153C202.52 13.3838 203.479 13.2181 204.568 13.2181C205.325 13.2181 206.05 13.3069 206.743 13.4844C207.441 13.662 208.059 13.9372 208.598 14.3101C209.143 14.683 209.572 15.1624 209.885 15.7483C210.199 16.3283 210.356 17.0237 210.356 17.8346V27.032H206.769V25.141H206.663C206.444 25.5672 206.151 25.943 205.784 26.2685C205.417 26.5881 204.976 26.8397 204.461 27.0232C203.946 27.2007 203.351 27.2895 202.677 27.2895ZM203.76 24.6794C204.316 24.6794 204.807 24.5699 205.233 24.3509C205.659 24.126 205.994 23.8242 206.237 23.4454C206.479 23.0666 206.601 22.6375 206.601 22.1581V20.711C206.482 20.7879 206.319 20.859 206.112 20.9241C205.911 20.9833 205.683 21.0395 205.429 21.0928C205.174 21.1401 204.92 21.1845 204.665 21.2259C204.411 21.2614 204.18 21.294 203.973 21.3236C203.529 21.3887 203.141 21.4923 202.81 21.6343C202.478 21.7763 202.221 21.9687 202.037 22.2114C201.854 22.4481 201.762 22.744 201.762 23.0991C201.762 23.6141 201.949 24.0076 202.321 24.2799C202.7 24.5462 203.18 24.6794 203.76 24.6794Z" fill="#2B2B2B"/>
<path d="M61.697 43.032H58.2964L62.7133 29.9411H66.9256L71.3426 43.032H67.942L64.8674 33.2394H64.7651L61.697 43.032ZM61.2431 37.88H68.3511V40.2834H61.2431V37.88ZM79.6746 36.9021V39.2863H74.6377V36.9021H79.6746ZM75.7115 33.2138V43.032H72.752V33.2138H75.7115ZM81.5602 33.2138V43.032H78.6199V33.2138H81.5602ZM82.7795 45.9276V40.6222H83.5146C83.7362 40.5114 83.913 40.2984 84.0451 39.983C84.1772 39.6634 84.2816 39.2906 84.3584 38.8644C84.4393 38.434 84.499 37.9866 84.5373 37.5221C84.5799 37.0533 84.6183 36.6123 84.6524 36.1989L84.8825 33.2138H92.8342V40.6222H94.3683V45.9276H91.4024V43.032H85.8221V45.9276H82.7795ZM86.5572 40.6222H89.9194V35.5406H87.4905L87.4393 36.1989C87.3797 37.2557 87.2859 38.1421 87.1581 38.858C87.0302 39.5739 86.8299 40.162 86.5572 40.6222ZM95.8145 46.7138V33.2138H98.9082V34.895H99.0041C99.132 34.5967 99.3131 34.309 99.5475 34.032C99.7861 33.755 100.089 33.5292 100.455 33.3545C100.826 33.1755 101.269 33.086 101.785 33.086C102.466 33.086 103.104 33.265 103.696 33.6229C104.292 33.9809 104.774 34.5327 105.14 35.2785C105.507 36.0242 105.69 36.9745 105.69 38.1293C105.69 39.2415 105.513 40.1727 105.16 40.9227C104.81 41.6727 104.337 42.2352 103.741 42.6102C103.148 42.9852 102.49 43.1727 101.765 43.1727C101.271 43.1727 100.843 43.0917 100.481 42.9298C100.118 42.7678 99.8138 42.5548 99.5666 42.2906C99.3237 42.0263 99.1362 41.743 99.0041 41.4404H98.9402V46.7138H95.8145ZM98.8763 38.1229C98.8763 38.6513 98.9466 39.1116 99.0872 39.5036C99.2321 39.8957 99.4388 40.2004 99.7073 40.4177C99.98 40.6307 100.306 40.7373 100.685 40.7373C101.069 40.7373 101.395 40.6307 101.663 40.4177C101.932 40.2004 102.134 39.8957 102.27 39.5036C102.411 39.1116 102.481 38.6513 102.481 38.1229C102.481 37.5945 102.411 37.1364 102.27 36.7486C102.134 36.3609 101.932 36.0604 101.663 35.8474C101.399 35.6343 101.073 35.5278 100.685 35.5278C100.302 35.5278 99.9757 35.6322 99.7073 35.841C99.4388 36.0498 99.2321 36.3481 99.0872 36.7359C98.9466 37.1236 98.8763 37.586 98.8763 38.1229ZM111.918 43.2174C110.891 43.2174 110.004 43.015 109.259 42.6102C108.517 42.2011 107.946 41.6194 107.545 40.8651C107.149 40.1066 106.951 39.2053 106.951 38.1613C106.951 37.1471 107.151 36.2607 107.552 35.5022C107.952 34.7394 108.517 34.1471 109.246 33.7252C109.974 33.2991 110.833 33.086 111.822 33.086C112.521 33.086 113.16 33.1947 113.739 33.412C114.319 33.6293 114.82 33.9511 115.242 34.3772C115.663 34.8033 115.992 35.3296 116.226 35.956C116.46 36.5782 116.577 37.292 116.577 38.0974V38.8772H108.044V37.0619H113.669C113.665 36.7295 113.586 36.4333 113.433 36.1734C113.279 35.9134 113.068 35.711 112.8 35.5661C112.536 35.417 112.231 35.3424 111.886 35.3424C111.536 35.3424 111.223 35.4212 110.946 35.5789C110.669 35.7323 110.45 35.9432 110.288 36.2117C110.126 36.4759 110.041 36.7763 110.032 37.113V38.9603C110.032 39.3609 110.111 39.7124 110.269 40.015C110.426 40.3133 110.65 40.5455 110.94 40.7117C111.229 40.8779 111.575 40.961 111.975 40.961C112.252 40.961 112.504 40.9227 112.729 40.8459C112.955 40.7692 113.149 40.6563 113.311 40.5072C113.473 40.358 113.595 40.1748 113.675 39.9575L116.545 40.0406C116.426 40.684 116.164 41.2444 115.759 41.7217C115.359 42.1947 114.832 42.5633 114.18 42.8275C113.528 43.0874 112.774 43.2174 111.918 43.2174ZM122.763 43.2174C121.736 43.2174 120.85 43.015 120.104 42.6102C119.363 42.2011 118.792 41.6194 118.391 40.8651C117.995 40.1066 117.797 39.2053 117.797 38.1613C117.797 37.1471 117.997 36.2607 118.398 35.5022C118.798 34.7394 119.363 34.1471 120.091 33.7252C120.82 33.2991 121.679 33.086 122.667 33.086C123.366 33.086 124.006 33.1947 124.585 33.412C125.165 33.6293 125.665 33.9511 126.087 34.3772C126.509 34.8033 126.837 35.3296 127.072 35.956C127.306 36.5782 127.423 37.292 127.423 38.0974V38.8772H118.89V37.0619H124.515C124.511 36.7295 124.432 36.4333 124.278 36.1734C124.125 35.9134 123.914 35.711 123.645 35.5661C123.381 35.417 123.077 35.3424 122.731 35.3424C122.382 35.3424 122.069 35.4212 121.792 35.5789C121.515 35.7323 121.295 35.9432 121.133 36.2117C120.971 36.4759 120.886 36.7763 120.878 37.113V38.9603C120.878 39.3609 120.957 39.7124 121.114 40.015C121.272 40.3133 121.496 40.5455 121.785 40.7117C122.075 40.8779 122.42 40.961 122.821 40.961C123.098 40.961 123.349 40.9227 123.575 40.8459C123.801 40.7692 123.995 40.6563 124.157 40.5072C124.319 40.358 124.44 40.1748 124.521 39.9575L127.391 40.0406C127.272 40.684 127.01 41.2444 126.605 41.7217C126.204 42.1947 125.678 42.5633 125.026 42.8275C124.374 43.0874 123.62 43.2174 122.763 43.2174ZM129.02 43.032V33.2138H133.258C134.523 33.2138 135.52 33.4418 136.249 33.8978C136.982 34.3495 137.348 35.0121 137.348 35.8857C137.348 36.3928 137.142 36.8296 136.728 37.1961C136.319 37.5583 135.738 37.8033 134.983 37.9312C135.648 37.9653 136.2 38.0974 136.639 38.3275C137.078 38.5576 137.406 38.8495 137.623 39.2032C137.841 39.5569 137.949 39.934 137.949 40.3346C137.949 40.9141 137.794 41.4042 137.483 41.8048C137.172 42.2053 136.716 42.51 136.115 42.7188C135.518 42.9276 134.785 43.032 133.916 43.032H129.02ZM131.928 40.7692H133.916C134.248 40.7692 134.508 40.6904 134.696 40.5327C134.887 40.3751 134.983 40.1577 134.983 39.8807C134.983 39.5825 134.887 39.3481 134.696 39.1776C134.508 39.0072 134.248 38.9219 133.916 38.9219H131.928V40.7692ZM131.928 37.2281H133.341C133.566 37.2281 133.76 37.194 133.922 37.1258C134.084 37.0576 134.208 36.9596 134.293 36.8317C134.383 36.7039 134.427 36.5505 134.427 36.3715C134.427 36.1116 134.323 35.907 134.114 35.7579C133.909 35.6087 133.624 35.5342 133.258 35.5342H131.928V37.2281ZM142.264 43.1982C141.637 43.1982 141.081 43.0938 140.596 42.885C140.114 42.6719 139.733 42.3523 139.451 41.9262C139.174 41.4958 139.036 40.9567 139.036 40.309C139.036 39.7636 139.132 39.3033 139.324 38.9283C139.515 38.5533 139.78 38.2486 140.116 38.0143C140.453 37.7799 140.841 37.6031 141.28 37.4837C141.718 37.3602 142.187 37.2771 142.686 37.2344C143.244 37.1833 143.694 37.13 144.034 37.0746C144.375 37.015 144.623 36.9319 144.776 36.8254C144.934 36.7146 145.012 36.559 145.012 36.3587V36.3268C145.012 35.9986 144.9 35.7451 144.674 35.5661C144.448 35.3871 144.143 35.2977 143.76 35.2977C143.346 35.2977 143.014 35.3871 142.762 35.5661C142.511 35.7451 142.351 35.9923 142.283 36.3076L139.4 36.2053C139.485 35.6087 139.705 35.0761 140.059 34.6073C140.417 34.1343 140.907 33.7636 141.529 33.4951C142.155 33.2224 142.907 33.086 143.785 33.086C144.412 33.086 144.989 33.1606 145.517 33.3097C146.046 33.4546 146.506 33.6677 146.898 33.9489C147.29 34.2259 147.593 34.5668 147.806 34.9717C148.023 35.3765 148.132 35.8388 148.132 36.3587V43.032H145.191V41.6641H145.115C144.94 41.9965 144.716 42.2778 144.444 42.5079C144.175 42.738 143.858 42.9106 143.491 43.0256C143.129 43.1407 142.72 43.1982 142.264 43.1982ZM143.229 41.1528C143.566 41.1528 143.868 41.0846 144.137 40.9482C144.409 40.8119 144.627 40.6244 144.789 40.3857C144.951 40.1428 145.032 39.8616 145.032 39.542V38.6087C144.942 38.6556 144.833 38.6982 144.706 38.7366C144.582 38.7749 144.446 38.8111 144.297 38.8452C144.147 38.8793 143.994 38.9092 143.836 38.9347C143.679 38.9603 143.527 38.9837 143.383 39.005C143.088 39.0519 142.837 39.1244 142.628 39.2224C142.424 39.3204 142.266 39.4482 142.155 39.6059C142.049 39.7593 141.995 39.9425 141.995 40.1556C141.995 40.4795 142.11 40.7266 142.341 40.8971C142.575 41.0675 142.871 41.1528 143.229 41.1528Z" fill="#2B2B2B"/>
</svg>
